<?xml version="1.0" encoding="utf-8"?>
<!-- Generator: Adobe Illustrator 26.1.0, SVG Export Plug-In . SVG Version: 6.00 Build 0)  -->
<svg version="1.1" id="Capa_1" xmlns="http://www.w3.org/2000/svg" xmlns:xlink="http://www.w3.org/1999/xlink" x="0px" y="0px"
	 viewBox="0 0 827 174.4" style="enable-background:new 0 0 827 174.4;" xml:space="preserve">
<style type="text/css">
	.st0{fill:#181818;}
	.st1{fill:#FFFFFF;}
	.st2{fill:#666666;}
	.st3{fill:#B3B3B3;}
	.st4{fill:#F2F2F2;}
</style>
<g>
	<g>
		<path class="st3" d="M322.1,174.4c-2.2,0-4.1-0.5-5.8-1.6s-3.1-2.6-4-4.6c-1-2-1.5-4.5-1.5-7.4c0-2.9,0.5-5.3,1.5-7.3
			c1-2,2.3-3.5,4-4.6s3.7-1.6,5.8-1.6c2,0,3.7,0.4,5.1,1.2c1.3,0.8,2.3,1.8,3,3.1v-15.3h4.4v37.3h-3.6l-0.5-4h-0.3
			c-0.7,1.4-1.7,2.5-3.1,3.4C325.7,174,324,174.4,322.1,174.4z M322.6,170.2c2.2,0,4-0.8,5.4-2.3c1.4-1.5,2.1-3.9,2.1-7
			s-0.7-5.5-2.1-7c-1.4-1.5-3.2-2.3-5.4-2.3c-2.2,0-4,0.8-5.4,2.3c-1.4,1.5-2.1,3.9-2.1,7s0.7,5.5,2.1,7
			C318.7,169.5,320.5,170.2,322.6,170.2z"/>
		<path class="st3" d="M348.9,173.8V170h8.2v-17c0-0.9-0.4-1.3-1.3-1.3h-6V148h7.1c3.1,0,4.6,1.5,4.6,4.6V170h8.2v3.7H348.9z
			 M358.9,143.5c-1,0-1.9-0.3-2.6-1c-0.7-0.7-1-1.5-1-2.5c0-1,0.3-1.8,1-2.5c0.7-0.7,1.6-1,2.6-1c1,0,1.9,0.3,2.6,1
			c0.7,0.7,1.1,1.5,1.1,2.5c0,1-0.4,1.8-1.1,2.5C360.8,143.1,359.9,143.5,358.9,143.5z"/>
		<path class="st3" d="M395.8,174.4c-3.3,0-5.9-0.8-8-2.3c-2-1.5-3.2-3.7-3.4-6.4h4.5c0.2,1.4,0.9,2.6,2.1,3.5
			c1.2,0.9,2.8,1.3,4.8,1.3c1.9,0,3.4-0.4,4.3-1.2c1-0.8,1.4-1.8,1.4-2.9c0-1.5-0.6-2.4-1.7-3c-1.1-0.5-2.9-0.9-5.1-1.2
			c-2.7-0.3-5-1.1-6.8-2.2c-1.8-1.2-2.7-2.9-2.7-5.3c0-2.1,0.9-3.9,2.6-5.2s4.2-2.1,7.2-2.1c3,0,5.4,0.7,7.1,2
			c1.7,1.4,2.7,3.3,3,5.8h-4.3c-0.1-1.2-0.7-2.2-1.8-3c-1.1-0.7-2.4-1.1-4.1-1.1c-1.7,0-3,0.3-3.9,1s-1.4,1.5-1.4,2.5
			s0.5,1.9,1.6,2.6c1.1,0.7,2.7,1.1,5,1.3c1.8,0.2,3.4,0.6,4.9,1c1.5,0.5,2.7,1.2,3.6,2.3c0.9,1,1.3,2.5,1.3,4.4
			c0,1.6-0.4,2.9-1.3,4.2c-0.9,1.2-2.1,2.2-3.7,2.9C399.7,174,397.9,174.4,395.8,174.4z"/>
		<path class="st3" d="M432.1,174.4c-2.4,0-4.6-0.6-6.4-1.7s-3.3-2.7-4.4-4.7s-1.6-4.4-1.6-7.1c0-2.7,0.5-5.1,1.6-7.1
			s2.5-3.6,4.4-4.7c1.9-1.1,4-1.7,6.5-1.7s4.6,0.6,6.4,1.7s3.1,2.6,4,4.4c0.9,1.8,1.4,3.8,1.4,5.9c0,0.4,0,0.8,0,1.1
			c0,0.4,0,0.8,0,1.3h-20c0.1,1.9,0.5,3.5,1.3,4.7c0.8,1.3,1.8,2.2,3,2.8c1.2,0.6,2.5,0.9,3.8,0.9c1.9,0,3.4-0.4,4.5-1.2
			c1.1-0.8,1.9-1.9,2.4-3.3h4.3c-0.6,2.4-1.8,4.4-3.7,6C437.8,173.6,435.3,174.4,432.1,174.4z M432.1,151.3c-2,0-3.8,0.6-5.3,1.8
			c-1.5,1.2-2.4,2.9-2.8,5.1h15.7c-0.1-2.1-0.9-3.8-2.3-5.1C436,151.9,434.3,151.3,432.1,151.3z"/>
		<path class="st3" d="M457.2,173.8V148h3.6l0.5,3.9h0.3c0.7-1.2,1.8-2.3,3.3-3.2s3.2-1.3,5.1-1.3c3.1,0,5.5,0.9,7.1,2.8
			c1.6,1.9,2.4,4.6,2.4,8.1v15.5H475v-14.9c0-2.3-0.5-4.1-1.5-5.4c-1-1.3-2.6-1.9-4.7-1.9c-2,0-3.8,0.7-5.2,2.1
			c-1.4,1.4-2.1,3.4-2.1,6v14.1H457.2z M472.4,143.7c-1,0-1.8-0.2-2.5-0.5s-1.3-0.7-1.8-1.1c-0.6-0.4-1.2-0.5-1.9-0.5
			c-1.2,0-2,0.7-2.2,2.1h-2.9c0.1-1.7,0.6-2.9,1.5-3.8c0.9-0.9,2-1.3,3.4-1.3c1,0,1.8,0.2,2.4,0.5c0.7,0.4,1.3,0.7,1.8,1.1
			c0.6,0.4,1.2,0.5,1.9,0.5c1.3,0,2.1-0.7,2.3-2.1h2.9c0,1.6-0.5,2.9-1.4,3.8C475,143.3,473.8,143.7,472.4,143.7z"/>
		<path class="st3" d="M504.5,174.4c-2.4,0-4.6-0.6-6.4-1.7s-3.3-2.7-4.4-4.7c-1.1-2-1.6-4.4-1.6-7.1s0.5-5.1,1.6-7.1
			c1.1-2,2.5-3.6,4.4-4.7c1.9-1.1,4-1.7,6.4-1.7c2.4,0,4.6,0.6,6.4,1.7c1.9,1.1,3.3,2.7,4.4,4.7c1.1,2,1.6,4.4,1.6,7.1
			s-0.5,5.1-1.6,7.1c-1.1,2-2.5,3.6-4.4,4.7S506.9,174.4,504.5,174.4z M504.5,170.2c1.5,0,2.8-0.3,4-1c1.2-0.7,2.2-1.7,2.9-3.1
			s1.1-3.1,1.1-5.3s-0.4-3.9-1.1-5.3c-0.7-1.4-1.7-2.4-2.9-3.1c-1.2-0.7-2.6-1-4-1c-1.5,0-2.8,0.3-4,1c-1.2,0.7-2.2,1.7-2.9,3.1
			c-0.7,1.4-1.1,3.1-1.1,5.3c0,3.2,0.8,5.6,2.3,7.1C500.4,169.5,502.2,170.2,504.5,170.2z"/>
	</g>
	<g>
		<path class="st4" d="M18.6,72.4L0,20.5h16.6l10.7,34.6l-2.1-0.2l12.4-27.7h10.5l13.2,27.7l-2.1,0.2l10.9-34.6h16.6l-19.4,52H55.5
			L40.6,39.2l5.1-0.3L30.5,72.4H18.6z"/>
		<path class="st4" d="M131.7,73.4c-6.7,0-12.5-1.2-17.5-3.5c-5-2.3-8.9-5.5-11.7-9.5c-2.8-4-4.2-8.6-4.2-13.7
			c0-4.2,0.8-7.9,2.5-11.3c1.7-3.3,3.9-6.2,6.8-8.6c2.8-2.4,6.2-4.2,10-5.5c3.8-1.3,7.9-2,12.1-2c4.3,0,8.3,0.7,11.9,2
			c3.6,1.3,6.8,3.1,9.5,5.4c2.7,2.3,4.8,5.1,6.3,8.3c1.5,3.2,2.1,6.7,2,10.6l-0.1,4.6h-50.2l-2.3-9.5h39.7l-1.7,2.2v-2
			c-0.3-1.8-1.1-3.3-2.4-4.6c-1.4-1.3-3.1-2.3-5.3-3.1c-2.2-0.7-4.6-1.1-7.2-1.1c-3.2,0-6.1,0.5-8.6,1.4c-2.5,0.9-4.6,2.4-6.1,4.4
			c-1.5,2-2.3,4.5-2.3,7.6c0,2.8,0.9,5.3,2.6,7.5c1.7,2.2,4.2,4,7.3,5.2s6.9,1.9,11.2,1.9c4,0,7.3-0.5,9.8-1.4
			c2.6-0.9,4.7-1.9,6.4-3l6.9,10.1c-2.3,1.6-4.8,3-7.5,4.1c-2.7,1.1-5.6,2-8.6,2.5C138,73.1,134.9,73.4,131.7,73.4z"/>
		<path class="st4" d="M219,73.5c-3.1,0-6-0.4-8.7-1.2c-2.7-0.8-5.1-1.8-7.1-3c-2.1-1.2-3.8-2.6-5.1-4.1c-1.3-1.5-2.2-2.9-2.6-4.3
			l4.7-0.6l-0.9,12h-14.6V0h15.8v32.9l-4.5-0.6c0.5-1.6,1.4-3.1,2.7-4.6c1.3-1.5,3-2.9,5.1-4.2s4.4-2.3,7-3c2.6-0.7,5.5-1.1,8.5-1.1
			c5.2,0,9.9,1.2,14,3.5c4.1,2.3,7.5,5.5,9.9,9.6c2.5,4.1,3.7,8.7,3.7,13.9c0,5.3-1.2,10-3.6,14c-2.4,4.1-5.7,7.3-9.9,9.6
			C229.2,72.4,224.4,73.5,219,73.5z M215.4,60.2c3.3,0,6.1-0.6,8.5-1.8c2.4-1.2,4.2-2.8,5.6-4.8c1.3-2.1,2-4.5,2-7.2
			c0-2.7-0.7-5.1-2-7.2c-1.3-2.1-3.2-3.6-5.6-4.7c-2.4-1.1-5.2-1.7-8.4-1.7c-3.3,0-6.1,0.6-8.6,1.7c-2.4,1.1-4.3,2.7-5.7,4.7
			c-1.3,2.1-2,4.5-2,7.2c0,2.7,0.7,5.1,2,7.2c1.3,2.1,3.2,3.7,5.7,4.8C209.3,59.6,212.2,60.2,215.4,60.2z"/>
		<path class="st4" d="M306.2,73.5c-3.1,0-6-0.4-8.7-1.2c-2.7-0.8-5.1-1.8-7.1-3c-2.1-1.2-3.8-2.6-5.1-4.1c-1.3-1.5-2.2-2.9-2.6-4.3
			l4.7-0.6l-0.9,12h-14.6V0h15.8v32.9l-4.5-0.6c0.5-1.6,1.4-3.1,2.7-4.6c1.3-1.5,3-2.9,5.1-4.2s4.4-2.3,7-3c2.6-0.7,5.5-1.1,8.5-1.1
			c5.2,0,9.9,1.2,14,3.5c4.1,2.3,7.5,5.5,9.9,9.6c2.5,4.1,3.7,8.7,3.7,13.9c0,5.3-1.2,10-3.6,14c-2.4,4.1-5.7,7.3-9.9,9.6
			C316.4,72.4,311.6,73.5,306.2,73.5z M302.6,60.2c3.3,0,6.1-0.6,8.5-1.8c2.4-1.2,4.2-2.8,5.6-4.8c1.3-2.1,2-4.5,2-7.2
			c0-2.7-0.7-5.1-2-7.2c-1.3-2.1-3.2-3.6-5.6-4.7c-2.4-1.1-5.2-1.7-8.4-1.7c-3.3,0-6.1,0.6-8.6,1.7c-2.4,1.1-4.3,2.7-5.7,4.7
			c-1.3,2.1-2,4.5-2,7.2c0,2.7,0.7,5.1,2,7.2c1.3,2.1,3.2,3.7,5.7,4.8C296.5,59.6,299.4,60.2,302.6,60.2z"/>
		<path class="st4" d="M363.3,94.9L378,67.1l-0.7,7.7l-29.1-54.4h18.2l13.4,27.6c1.1,2,2.1,4.1,3.1,6.2c0.9,2.1,1.7,4.3,2.4,6.4
			l-3.4,0.4c0.7-1.7,1.5-3.7,2.4-5.9c0.9-2.2,1.9-4.5,2.9-6.8l12.8-28H418l-27.4,52.4l-11.3,22.1H363.3z"/>
		<path class="st4" d="M473.6,73.4c-5.7,0-11-0.8-15.9-2.3c-4.8-1.6-9-3.9-12.5-6.9c-3.5-3-6.3-6.8-8.2-11.2
			c-2-4.4-2.9-9.5-2.9-15.1c0-5.1,1-9.8,3.1-14c2.1-4.3,4.9-8,8.7-11.2c3.7-3.2,8.1-5.7,13.2-7.4c5.1-1.8,10.6-2.6,16.5-2.6
			c4.8,0,9.1,0.5,13.1,1.6c3.9,1.1,7.5,2.5,10.6,4.2c3.1,1.7,5.6,3.6,7.6,5.6L496.6,25c-1.9-1.6-3.9-2.9-6.1-4s-4.5-2-7-2.7
			c-2.5-0.7-5.2-1.1-8.2-1.1c-3.4,0-6.5,0.5-9.4,1.6c-2.9,1-5.4,2.5-7.6,4.4s-3.8,4-5,6.6c-1.2,2.5-1.8,5.2-1.8,8.2
			c0,3.5,0.6,6.6,1.9,9.2c1.3,2.6,3,4.8,5.2,6.5c2.2,1.7,4.8,2.9,7.6,3.8c2.9,0.9,5.9,1.3,9.1,1.3c2.9,0,5.7-0.3,8.2-1
			c2.5-0.7,4.7-1.5,6.6-2.7c1.8-1.1,3.3-2.5,4.3-4.1c1-1.6,1.5-3.3,1.5-5.1l0.1-2.2l2.2,3.8H474V34.6h37.9c0.1,0.9,0.2,2,0.3,3.1
			c0.1,1.2,0.1,2.3,0.1,3.2c0,1,0,1.6,0,2c0,4.9-0.9,9.2-2.8,13c-1.9,3.8-4.5,7-7.9,9.5c-3.4,2.6-7.5,4.6-12.3,5.9
			C484.5,72.7,479.3,73.4,473.6,73.4z"/>
		<path class="st4" d="M536.8,72.4v-52h14.9l0.7,18.6l-4.2-1.2c1-3.5,2.6-6.6,4.8-9.3c2.3-2.8,4.9-5,7.9-6.7s6.2-2.5,9.5-2.5
			c2,0,3.9,0.2,5.7,0.6c1.8,0.4,3.4,0.9,4.7,1.7l-4.3,16.9c-1.2-0.8-2.7-1.4-4.7-1.9c-2-0.5-3.9-0.7-5.8-0.7c-2.2,0-4.1,0.3-5.8,1
			c-1.7,0.7-3.1,1.6-4.3,2.7c-1.2,1.2-2.1,2.5-2.6,4c-0.6,1.5-0.9,3-0.9,4.6v24.2H536.8z"/>
		<path class="st4" d="M622.6,73.3c-5.5,0-10.4-1.2-14.5-3.5c-4.1-2.3-7.4-5.5-9.7-9.5c-2.3-4-3.5-8.6-3.5-13.8c0-5.3,1.2-10,3.6-14
			c2.4-4.1,5.7-7.3,9.8-9.6c4.2-2.3,9-3.5,14.6-3.5c3.2,0,6.1,0.4,8.9,1.2c2.7,0.8,5.1,1.8,7.1,3.1c2.1,1.3,3.7,2.7,5,4.3
			c1.3,1.5,2.1,3.1,2.5,4.6l-3.7,0.2V20.5h15.6v52h-15.9V58.6l3.3,0.9c-0.3,1.6-1.1,3.3-2.4,4.9c-1.3,1.6-3,3.1-5.1,4.5
			c-2.1,1.3-4.4,2.4-7.1,3.2C628.5,72.9,625.6,73.3,622.6,73.3z M626.7,60.1c3.3,0,6.2-0.6,8.6-1.7c2.4-1.1,4.2-2.7,5.6-4.8
			c1.3-2.1,2-4.4,2-7.1c0-2.8-0.7-5.2-2-7.2c-1.3-2-3.2-3.6-5.6-4.8c-2.4-1.2-5.2-1.8-8.6-1.8c-3.3,0-6.1,0.6-8.5,1.8
			c-2.4,1.2-4.3,2.8-5.7,4.8c-1.4,2-2.1,4.4-2.1,7.2c0,2.7,0.7,5,2.1,7.1s3.3,3.7,5.7,4.8C620.6,59.5,623.5,60.1,626.7,60.1z"/>
		<path class="st4" d="M704.6,72.4l-26.5-52h18L714,60.7l-4.4,0.4l18.3-40.6h17.7l-27.4,52H704.6z"/>
		<path class="st4" d="M772.3,94.9l14.7-27.8l-0.7,7.7l-29.1-54.4h18.2l13.4,27.6c1.1,2,2.1,4.1,3.1,6.2c0.9,2.1,1.7,4.3,2.4,6.4
			l-3.4,0.4c0.7-1.7,1.5-3.7,2.4-5.9c0.9-2.2,1.9-4.5,2.9-6.8l12.8-28H827l-27.4,52.4l-11.3,22.1H772.3z"/>
	</g>
</g>
</svg>
