<?xml version="1.0" encoding="utf-8"?>
<!-- Generator: Adobe Illustrator 26.1.0, SVG Export Plug-In . SVG Version: 6.00 Build 0)  -->
<svg version="1.1" id="Capa_1" xmlns="http://www.w3.org/2000/svg" xmlns:xlink="http://www.w3.org/1999/xlink" x="0px" y="0px"
	 viewBox="0 0 1080 1080" style="enable-background:new 0 0 1080 1080;" xml:space="preserve">
<style type="text/css">
	.st0{fill:#181818;}
	.st1{fill:#FFFFFF;}
	.st2{font-family:'LexendMega-Bold';}
	.st3{font-size:97.8801px;}
	.st4{fill:#666666;}
	.st5{fill:#B3B3B3;}
	.st6{fill:#F2F2F2;}
</style>
<text transform="matrix(1 0 0 1 116.6245 568.2158)" class="st0 st2 st3">webbyGravy</text>
<g>
	<path class="st4" d="M448.2,671.6c-2.2,0-4.1-0.5-5.8-1.6s-3.1-2.6-4-4.6c-1-2-1.5-4.5-1.5-7.4c0-2.9,0.5-5.3,1.5-7.3
		c1-2,2.3-3.5,4-4.6s3.7-1.6,5.8-1.6c2,0,3.7,0.4,5.1,1.2c1.3,0.8,2.3,1.8,3,3.1v-15.3h4.4v37.3h-3.6l-0.5-4h-0.3
		c-0.7,1.4-1.7,2.5-3.1,3.4C451.9,671.1,450.2,671.6,448.2,671.6z M448.8,667.4c2.2,0,4-0.8,5.4-2.3c1.4-1.5,2.1-3.9,2.1-7
		s-0.7-5.5-2.1-7c-1.4-1.5-3.2-2.3-5.4-2.3c-2.2,0-4,0.8-5.4,2.3c-1.4,1.5-2.1,3.9-2.1,7s0.7,5.5,2.1,7
		C444.8,666.6,446.6,667.4,448.8,667.4z"/>
	<path class="st4" d="M475,670.9v-3.7h8.2v-17c0-0.9-0.4-1.3-1.3-1.3h-6v-3.7h7.1c3.1,0,4.6,1.5,4.6,4.6v17.4h8.2v3.7H475z
		 M485.1,640.7c-1,0-1.9-0.3-2.6-1c-0.7-0.7-1-1.5-1-2.5c0-1,0.3-1.8,1-2.5c0.7-0.7,1.6-1,2.6-1c1,0,1.9,0.3,2.6,1
		c0.7,0.7,1.1,1.5,1.1,2.5c0,1-0.4,1.8-1.1,2.5C487,640.3,486.1,640.7,485.1,640.7z"/>
	<path class="st4" d="M522,671.6c-3.3,0-5.9-0.8-8-2.3c-2-1.5-3.2-3.7-3.4-6.4h4.5c0.2,1.4,0.9,2.6,2.1,3.5c1.2,0.9,2.8,1.3,4.8,1.3
		c1.9,0,3.4-0.4,4.3-1.2c1-0.8,1.4-1.8,1.4-2.9c0-1.5-0.6-2.4-1.7-3c-1.1-0.5-2.9-0.9-5.1-1.2c-2.7-0.3-5-1.1-6.8-2.2
		c-1.8-1.2-2.7-2.9-2.7-5.3c0-2.1,0.9-3.9,2.6-5.2s4.2-2.1,7.2-2.1c3,0,5.4,0.7,7.1,2c1.7,1.4,2.7,3.3,3,5.8h-4.3
		c-0.1-1.2-0.7-2.2-1.8-3c-1.1-0.7-2.4-1.1-4.1-1.1c-1.7,0-3,0.3-3.9,1s-1.4,1.5-1.4,2.5s0.5,1.9,1.6,2.6c1.1,0.7,2.7,1.1,5,1.3
		c1.8,0.2,3.4,0.6,4.9,1c1.5,0.5,2.7,1.2,3.6,2.3c0.9,1,1.3,2.5,1.3,4.4c0,1.6-0.4,2.9-1.3,4.2c-0.9,1.2-2.1,2.2-3.7,2.9
		C525.8,671.2,524,671.6,522,671.6z"/>
	<path class="st4" d="M558.3,671.6c-2.4,0-4.6-0.6-6.4-1.7s-3.3-2.7-4.4-4.7s-1.6-4.4-1.6-7.1c0-2.7,0.5-5.1,1.6-7.1
		s2.5-3.6,4.4-4.7c1.9-1.1,4-1.7,6.5-1.7s4.6,0.6,6.4,1.7s3.1,2.6,4,4.4c0.9,1.8,1.4,3.8,1.4,5.9c0,0.4,0,0.8,0,1.1
		c0,0.4,0,0.8,0,1.3h-20c0.1,1.9,0.5,3.5,1.3,4.7c0.8,1.3,1.8,2.2,3,2.8c1.2,0.6,2.5,0.9,3.8,0.9c1.9,0,3.4-0.4,4.5-1.2
		c1.1-0.8,1.9-1.9,2.4-3.3h4.3c-0.6,2.4-1.8,4.4-3.7,6C563.9,670.7,561.4,671.6,558.3,671.6z M558.3,648.5c-2,0-3.8,0.6-5.3,1.8
		c-1.5,1.2-2.4,2.9-2.8,5.1h15.7c-0.1-2.1-0.9-3.8-2.3-5.1C562.2,649.1,560.4,648.5,558.3,648.5z"/>
	<path class="st4" d="M583.3,670.9v-25.7h3.6l0.5,3.9h0.3c0.7-1.2,1.8-2.3,3.3-3.2s3.2-1.3,5.1-1.3c3.1,0,5.5,0.9,7.1,2.8
		c1.6,1.9,2.4,4.6,2.4,8.1v15.5h-4.4V656c0-2.3-0.5-4.1-1.5-5.4c-1-1.3-2.6-1.9-4.7-1.9c-2,0-3.8,0.7-5.2,2.1
		c-1.4,1.4-2.1,3.4-2.1,6v14.1H583.3z M598.6,640.9c-1,0-1.8-0.2-2.5-0.5s-1.3-0.7-1.8-1.1c-0.6-0.4-1.2-0.5-1.9-0.5
		c-1.2,0-2,0.7-2.2,2.1h-2.9c0.1-1.7,0.6-2.9,1.5-3.8c0.9-0.9,2-1.3,3.4-1.3c1,0,1.8,0.2,2.4,0.5c0.7,0.4,1.3,0.7,1.8,1.1
		c0.6,0.4,1.2,0.5,1.9,0.5c1.3,0,2.1-0.7,2.3-2.1h2.9c0,1.6-0.5,2.9-1.4,3.8C601.2,640.5,600,640.9,598.6,640.9z"/>
	<path class="st4" d="M630.6,671.6c-2.4,0-4.6-0.6-6.4-1.7s-3.3-2.7-4.4-4.7c-1.1-2-1.6-4.4-1.6-7.1s0.5-5.1,1.6-7.1
		c1.1-2,2.5-3.6,4.4-4.7c1.9-1.1,4-1.7,6.4-1.7c2.4,0,4.6,0.6,6.4,1.7c1.9,1.1,3.3,2.7,4.4,4.7c1.1,2,1.6,4.4,1.6,7.1
		s-0.5,5.1-1.6,7.1c-1.1,2-2.5,3.6-4.4,4.7S633,671.6,630.6,671.6z M630.6,667.4c1.5,0,2.8-0.3,4-1c1.2-0.7,2.2-1.7,2.9-3.1
		s1.1-3.1,1.1-5.3s-0.4-3.9-1.1-5.3c-0.7-1.4-1.7-2.4-2.9-3.1c-1.2-0.7-2.6-1-4-1c-1.5,0-2.8,0.3-4,1c-1.2,0.7-2.2,1.7-2.9,3.1
		c-0.7,1.4-1.1,3.1-1.1,5.3c0,3.2,0.8,5.6,2.3,7.1C626.5,666.7,628.4,667.4,630.6,667.4z"/>
</g>
</svg>
