<?xml version="1.0" encoding="utf-8"?>
<!-- Generator: Adobe Illustrator 26.1.0, SVG Export Plug-In . SVG Version: 6.00 Build 0)  -->
<svg version="1.1" id="Capa_1" xmlns="http://www.w3.org/2000/svg" xmlns:xlink="http://www.w3.org/1999/xlink" x="0px" y="0px"
	 viewBox="0 0 1014 397.51" style="enable-background:new 0 0 1014 397.51;" xml:space="preserve">
<g>
	<path d="M177.82,56.79c-5.45,4.26-10.77,8.28-15.97,12.07L129.19,93.7c-5.21,3.79-9.58,7.69-13.13,11.71
		c-3.55,4.03-6.63,7.69-9.23,11c-2.61,3.32-4.97,6.63-7.1,9.94c-2.13,3.32-4.86,6.16-8.16,8.52l3.55,37.62l-3.55,22.72v14.2
		l-12.07,7.1l-78.08,6.39L0,204.43l3.55-7.8V14.91L14.91,2.13h41.17L75.25,43.3v48.98l14.91-14.2l21.29-36.91L159,2.84L168.23,0
		l26.97,42.59C189.05,47.8,183.25,52.53,177.82,56.79z"/>
	<path d="M427.89,56.79c-5.45,4.26-10.77,8.28-15.97,12.07L379.27,93.7c-5.21,3.79-9.58,7.69-13.13,11.71
		c-3.55,4.03-6.63,7.69-9.23,11c-2.61,3.32-4.97,6.63-7.1,9.94c-2.13,3.32-4.86,6.16-8.16,8.52l3.55,37.62l-3.55,22.72v14.2
		l-12.07,7.1l-78.08,6.39l-1.42-18.46l3.55-7.8V14.91l11.36-12.78h41.17l19.17,41.17v48.98l14.91-14.2l21.29-36.91l47.56-38.33
		L418.31,0l26.97,42.59C439.13,47.8,433.33,52.53,427.89,56.79z"/>
	<path d="M706.15,168.23c-0.47,5.21-0.71,11.6-0.71,19.16c0,9.94,0.23,20.59,0.71,31.94c0.47,11.36,0.71,22,0.71,31.94
		c0,21.77-3.2,39.86-9.58,54.3c-6.39,14.43-13.13,26.62-20.23,36.56c-8.05,8.99-14.67,15.97-19.88,20.94
		c-5.21,4.97-10.06,8.63-14.55,11c-4.5,2.36-8.76,4.02-12.77,4.97c-4.03,0.94-8.64,2.13-13.84,3.55c-9.94,2.36-22,5.43-36.2,9.23
		c-14.2,3.78-29.58,5.68-46.14,5.68c-5.68,0-9.71-1.07-12.07-3.2c-2.37-2.13-3.55-4.15-3.55-6.04v-0.71c0-2.37-0.95-3.55-2.84-3.55
		c2.37-4.26,3.2-7.58,2.48-9.94c-0.71-2.37-0.83-4.38-0.36-6.03c0.47-1.66,2.95-3.44,7.45-5.32c4.49-1.9,13.6-4.74,27.33-8.52
		c10.4-2.37,21.05-5.21,31.94-8.52c10.88-3.32,18.21-5.68,22-7.1c10.4-5.21,17.86-12.19,22.36-20.94
		c4.49-8.76,7.45-17.99,8.88-27.68c1.42-9.7,2.24-19.4,2.48-29.1c0.23-9.69,1.3-17.86,3.19-24.49c-1.9,0.48-6.39,1.19-13.48,2.13
		c-7.1,0.96-15.26,2.13-24.49,3.55c-9.23,1.42-18.23,2.48-26.97,3.2c-8.76,0.71-15.51,1.06-20.23,1.06
		c-5.68,0-10.29-0.36-13.84-1.06c-3.55-0.71-7.1-2.01-10.65-3.91c-3.55-1.88-7.58-3.78-12.07-5.68c-4.5-1.89-10.54-4.02-18.1-6.39
		l-17.74-20.58c-2.84-8.52-5.21-17.39-7.1-26.62c-1.9-9.23-2.84-18.33-2.84-27.33c0-20.34,4.72-38.33,14.2-53.95
		c9.46-15.62,21.05-28.75,34.78-39.4c13.72-10.65,28.27-18.81,43.65-24.49c15.37-5.68,28.75-8.52,40.1-8.52
		c6.62,0.96,12.18,2.25,16.68,3.91c4.49,1.66,8.27,3.44,11.36,5.32c3.07,1.9,5.68,3.44,7.81,4.62c2.13,1.19,3.9,1.77,5.32,1.77
		c3.31,0,6.26-0.71,8.87-2.13c2.59-1.42,5.08-3.2,7.45-5.32c2.36-2.13,4.26-4.02,5.68-5.68c1.42-1.65,2.59-2.48,3.55-2.48
		c0.47,0.96,1.89,1.66,4.26,2.13c2.37,0.48,4.97,0.71,7.81,0.71c7.1,0,11.11,2.61,12.07,7.81c0.94,5.21,1.89,12.07,2.84,20.58
		c1.42,9,2.59,16.22,3.55,21.65c0.94,5.44,2.01,10.18,3.19,14.2c1.18,4.03,2.01,7.93,2.48,11.71c0.47,3.79,0.71,8.05,0.71,12.78
		c0,5.68-0.36,11.6-1.06,17.75c-0.71,6.15-1.07,12.31-1.07,18.45C707.8,159,706.62,163.03,706.15,168.23z M595.06,83.41
		c-3.09,2.13-6.04,4.61-8.88,7.45c-15.15,17.51-24.49,33.72-28.04,48.62c-3.55,14.91-5.32,28.75-5.32,41.53l17.04,18.45h8.52
		c5.68,0,11.23,0.12,16.68,0.36c5.43,0.25,10.76,0.36,15.97,0.36c4.73,0,10.29-0.82,16.68-2.48c6.39-1.65,13.13-4.61,20.23-8.87
		l4.26-66.73c-2.37-9.46-4.61-16.91-6.74-22.36c-2.13-5.43-4.86-9.58-8.16-12.42c-3.32-2.84-7.45-4.61-12.42-5.32
		c-4.97-0.71-11-1.3-18.1-1.77C602.04,80.21,598.13,81.28,595.06,83.41z"/>
	<path d="M793.24,69.21c4.73-7.81,10.65-14.67,17.75-20.59c7.1-5.91,14.91-11,23.43-15.26c8.52-4.26,17.04-7.56,25.55-9.94
		l50.4-7.81c0,1.9,1.3,3.32,3.9,4.26c2.59,0.95,5.56,1.42,8.87,1.42c3.78,0,8.04-0.23,12.78-0.71c4.72-0.47,8.04-0.71,9.94-0.71
		h1.42c21.3,9.94,37.73,24.13,49.33,42.59c11.59,18.46,17.39,39.04,17.39,61.76c0,6.15-2.13,12.07-6.39,17.75
		s-9.35,10.77-15.26,15.26c-5.92,4.5-12.07,8.41-18.45,11.71c-6.39,3.31-11.25,5.68-14.55,7.1l-59.63,19.88
		c-2.84,1.9-5.45,3.31-7.81,4.26c-2.37,0.95-4.5,1.66-6.39,2.13h-17.04l-75.25-22l-7.1-9.23c-3.31-8.52-4.97-18.45-4.97-29.81
		c0-6.15,0.11-13.01,0.36-20.58c0.23-7.57,1.07-15.62,2.48-24.14C785.43,86.13,788.5,77.02,793.24,69.21z M903.26,61.76
		c-5.21,0-10.06,1.06-14.55,3.19c-4.5,2.13-8.52,4.74-12.07,7.81c-3.55,3.09-6.74,6.04-9.58,8.87c-2.84,2.84-5.68,4.97-8.52,6.39
		L855,130.61l18.46,16.33h9.94l75.95-15.62l18.45-26.97c-2.37-8.52-5.8-14.91-10.29-19.16c-4.5-4.26-9.58-7.69-15.26-10.29
		c-5.68-2.59-11.83-4.61-18.45-6.03c-6.63-1.42-12.78-3.07-18.45-4.97C910.6,62.46,906.57,61.76,903.26,61.76z"/>
</g>
</svg>
